<svg width="113" height="54" viewBox="0 0 113 54" fill="none" xmlns="http://www.w3.org/2000/svg">
<path d="M81.0859 27.8417C81.0859 25.486 81.4515 23.3537 82.1826 21.4448C82.9543 19.4952 84.0306 17.8503 85.4115 16.51C86.7924 15.1291 88.4576 14.0731 90.4072 13.342C92.3567 12.5703 94.5093 12.1844 96.865 12.1844C99.2207 12.1844 101.353 12.5703 103.262 13.342C105.211 14.0731 106.877 15.1291 108.258 16.51C109.639 17.8503 110.695 19.4952 111.426 21.4448C112.197 23.3537 112.583 25.486 112.583 27.8417C112.583 30.1974 112.197 32.35 111.426 34.2995C110.695 36.2491 109.639 37.9143 108.258 39.2952C106.877 40.6762 105.211 41.7525 103.262 42.5242C101.353 43.2552 99.2207 43.6208 96.865 43.6208C94.5093 43.6208 92.3567 43.2552 90.4072 42.5242C88.4576 41.7525 86.7924 40.6762 85.4115 39.2952C84.0306 37.9143 82.9543 36.2491 82.1826 34.2995C81.4515 32.35 81.0859 30.1974 81.0859 27.8417ZM88.3967 27.9026C88.3967 30.7457 89.1481 32.9592 90.6509 34.5432C92.1943 36.1272 94.2453 36.9192 96.8041 36.9192C99.3629 36.9192 101.414 36.1272 102.957 34.5432C104.501 32.9592 105.272 30.7457 105.272 27.9026C105.272 25.0595 104.501 22.846 102.957 21.262C101.414 19.678 99.3629 18.886 96.8041 18.886C94.2453 18.886 92.1943 19.678 90.6509 21.262C89.1481 22.846 88.3967 25.0595 88.3967 27.9026Z" fill="#202124"/>
<path d="M80.0378 43.4991C75.0015 43.4991 71.1836 42.2807 68.5843 39.8438C66.0255 37.3662 64.7461 33.7718 64.7461 29.0604V0.426514H72.0569V28.9995C72.0569 31.8019 72.6661 33.8124 73.8846 35.0308C75.103 36.2087 77.1541 36.7976 80.0378 36.7976V43.4991ZM79.0021 12.6111V19.3127H67.3658V12.6111H79.0021Z" fill="#202124"/>
<path d="M47.3434 12.063C49.8615 12.063 51.9938 12.4894 53.7403 13.3424C55.5274 14.1547 56.9895 15.2107 58.1268 16.5104C59.264 17.7694 60.0763 19.1504 60.5637 20.6531C61.0917 22.1559 61.3557 23.5775 61.3557 24.9178V43.0728H54.0449V25.1005C54.0449 24.0039 53.8621 23.0698 53.4966 22.2981C53.1311 21.5264 52.6437 20.8765 52.0345 20.3485C51.4252 19.8205 50.7145 19.4347 49.9021 19.191C49.0898 18.9473 48.2369 18.8255 47.3434 18.8255C46.4498 18.8255 45.5969 18.9473 44.7846 19.191C43.9723 19.4347 43.2615 19.8205 42.6523 20.3485C42.0431 20.8765 41.5557 21.5264 41.1901 22.2981C40.8246 23.0698 40.6418 24.0039 40.6418 25.1005V43.0728H33.3311V24.9178C33.3311 23.5775 33.5747 22.1559 34.0621 20.6531C34.5901 19.1504 35.4227 17.7694 36.56 16.5104C37.6972 15.2107 39.1391 14.1547 40.8855 13.3424C42.6726 12.4894 44.8252 12.063 47.3434 12.063Z" fill="#202124"/>
<path d="M22.6812 12.6111H29.9919V43.0726H22.6812V12.6111Z" fill="#202124"/>
<path d="M20.7494 6.70154C17.8657 6.70154 15.8146 7.31077 14.5962 8.52923C13.3777 9.70708 12.7685 11.6972 12.7685 14.4997V43.0726H5.45769V14.4388C5.45769 9.68677 6.73708 6.09231 9.29585 3.65539C11.8952 1.21846 15.7131 0 20.7494 0V6.70154ZM0 19.3126V12.6111H25.7426V19.3126H0Z" fill="#202124"/>
<path d="M22.2952 49.7511C22.2952 48.4879 22.6754 47.4735 23.4358 46.7079C24.2342 45.9424 25.2607 45.5596 26.5154 45.5596C27.77 45.5596 28.7775 45.9424 29.5379 46.7079C30.3363 47.4735 30.7356 48.4879 30.7356 49.7511C30.7356 51.0525 30.3363 52.086 29.5379 52.8516C28.7775 53.6172 27.77 54 26.5154 54C25.2607 54 24.2342 53.6172 23.4358 52.8516C22.6754 52.086 22.2952 51.0525 22.2952 49.7511Z" fill="#34C759"/>
</svg>
