<svg width="10" height="10" viewBox="0 0 10 10" fill="none" xmlns="http://www.w3.org/2000/svg">
<path d="M2.08337 2.07898C2.08337 1.67433 2.08337 1.47201 2.16774 1.36048C2.24125 1.26331 2.35359 1.20319 2.47521 1.19593C2.61481 1.18759 2.78315 1.29982 3.11984 1.52428L7.50132 4.44527C7.77953 4.63074 7.91863 4.72347 7.9671 4.84036C8.00948 4.94255 8.00948 5.0574 7.9671 5.15958C7.91863 5.27647 7.77953 5.3692 7.50132 5.55467L3.11984 8.47566C2.78315 8.70012 2.61481 8.81235 2.47521 8.80402C2.35359 8.79675 2.24125 8.73663 2.16774 8.63947C2.08337 8.52794 2.08337 8.32561 2.08337 7.92096V2.07898Z" fill="#34C759"/>
</svg>
