<svg width="821" height="160" viewBox="0 0 821 160" fill="none" xmlns="http://www.w3.org/2000/svg">
<rect x="820.5" y="0.5" width="159" height="820" rx="9.5" transform="rotate(90 820.5 0.5)" fill="#F4F4F4" stroke="#C9C9C9"/>
<path d="M333.818 91V67.7273H341.955C343.576 67.7273 344.913 68.0076 345.966 68.5682C347.019 69.1212 347.803 69.8674 348.318 70.8068C348.833 71.7386 349.091 72.7727 349.091 73.9091C349.091 74.9091 348.913 75.7348 348.557 76.3863C348.208 77.0379 347.746 77.553 347.17 77.9318C346.602 78.3106 345.985 78.5909 345.318 78.7727V79C346.03 79.0454 346.746 79.2954 347.466 79.75C348.186 80.2045 348.788 80.856 349.273 81.7045C349.758 82.553 350 83.5909 350 84.8182C350 85.9848 349.735 87.0341 349.205 87.9659C348.674 88.8977 347.837 89.6363 346.693 90.1818C345.549 90.7273 344.061 91 342.227 91H333.818ZM336.636 88.5H342.227C344.068 88.5 345.375 88.1439 346.148 87.4318C346.928 86.7121 347.318 85.8409 347.318 84.8182C347.318 84.0303 347.117 83.303 346.716 82.6363C346.314 81.9621 345.742 81.4242 345 81.0227C344.258 80.6136 343.379 80.4091 342.364 80.4091H336.636V88.5ZM336.636 77.9545H341.864C342.712 77.9545 343.477 77.7879 344.159 77.4545C344.848 77.1212 345.394 76.6515 345.795 76.0454C346.205 75.4394 346.409 74.7273 346.409 73.9091C346.409 72.8863 346.053 72.0189 345.341 71.3068C344.629 70.5871 343.5 70.2273 341.955 70.2273H336.636V77.9545ZM359.403 91.4091C358.297 91.4091 357.294 91.2007 356.392 90.7841C355.491 90.3598 354.775 89.75 354.244 88.9545C353.714 88.1515 353.449 87.1818 353.449 86.0454C353.449 85.0454 353.646 84.2348 354.04 83.6136C354.434 82.9848 354.96 82.4924 355.619 82.1363C356.278 81.7803 357.006 81.5151 357.801 81.3409C358.604 81.1591 359.411 81.0151 360.222 80.9091C361.282 80.7727 362.142 80.6704 362.801 80.6023C363.468 80.5265 363.953 80.4015 364.256 80.2273C364.566 80.053 364.722 79.75 364.722 79.3182V79.2273C364.722 78.106 364.415 77.2348 363.801 76.6136C363.195 75.9924 362.275 75.6818 361.04 75.6818C359.759 75.6818 358.756 75.9621 358.028 76.5227C357.301 77.0833 356.79 77.6818 356.494 78.3182L353.949 77.4091C354.403 76.3485 355.009 75.5227 355.767 74.9318C356.532 74.3333 357.366 73.9167 358.267 73.6818C359.176 73.4394 360.07 73.3182 360.949 73.3182C361.509 73.3182 362.153 73.3863 362.881 73.5227C363.616 73.6515 364.324 73.9204 365.006 74.3295C365.695 74.7386 366.267 75.356 366.722 76.1818C367.176 77.0076 367.403 78.1136 367.403 79.5V91H364.722V88.6363H364.585C364.403 89.0151 364.1 89.4204 363.676 89.8523C363.252 90.2841 362.688 90.6515 361.983 90.9545C361.278 91.2576 360.419 91.4091 359.403 91.4091ZM359.812 89C360.873 89 361.767 88.7917 362.494 88.375C363.229 87.9583 363.782 87.4204 364.153 86.7613C364.532 86.1023 364.722 85.4091 364.722 84.6818V82.2273C364.608 82.3636 364.358 82.4886 363.972 82.6023C363.593 82.7083 363.153 82.803 362.653 82.8863C362.161 82.9621 361.68 83.0303 361.21 83.0909C360.748 83.1439 360.373 83.1894 360.085 83.2273C359.388 83.3182 358.737 83.4659 358.131 83.6704C357.532 83.8674 357.047 84.1667 356.676 84.5682C356.313 84.9621 356.131 85.5 356.131 86.1818C356.131 87.1136 356.475 87.8182 357.165 88.2954C357.862 88.7651 358.744 89 359.812 89ZM374.98 80.5V91H372.298V73.5454H374.889V76.2727H375.116C375.526 75.3863 376.147 74.6742 376.98 74.1363C377.813 73.5909 378.889 73.3182 380.207 73.3182C381.389 73.3182 382.423 73.5606 383.31 74.0454C384.196 74.5227 384.885 75.25 385.378 76.2273C385.87 77.197 386.116 78.4242 386.116 79.9091V91H383.435V80.0909C383.435 78.7197 383.079 77.6515 382.366 76.8863C381.654 76.1136 380.677 75.7273 379.435 75.7273C378.579 75.7273 377.813 75.9129 377.139 76.2841C376.473 76.6553 375.946 77.197 375.56 77.9091C375.173 78.6212 374.98 79.4848 374.98 80.5ZM393.699 80.5V91H391.017V73.5454H393.608V76.2727H393.835C394.244 75.3863 394.866 74.6742 395.699 74.1363C396.532 73.5909 397.608 73.3182 398.926 73.3182C400.108 73.3182 401.142 73.5606 402.028 74.0454C402.915 74.5227 403.604 75.25 404.097 76.2273C404.589 77.197 404.835 78.4242 404.835 79.9091V91H402.153V80.0909C402.153 78.7197 401.797 77.6515 401.085 76.8863C400.373 76.1136 399.396 75.7273 398.153 75.7273C397.297 75.7273 396.532 75.9129 395.858 76.2841C395.191 76.6553 394.665 77.197 394.278 77.9091C393.892 78.6212 393.699 79.4848 393.699 80.5ZM417.054 91.3636C415.372 91.3636 413.921 90.9924 412.702 90.25C411.49 89.5 410.554 88.4545 409.895 87.1136C409.243 85.7651 408.918 84.197 408.918 82.4091C408.918 80.6212 409.243 79.0454 409.895 77.6818C410.554 76.3106 411.471 75.2424 412.645 74.4773C413.827 73.7045 415.205 73.3182 416.781 73.3182C417.69 73.3182 418.588 73.4697 419.474 73.7727C420.361 74.0757 421.168 74.5682 421.895 75.25C422.622 75.9242 423.202 76.8182 423.634 77.9318C424.065 79.0454 424.281 80.4167 424.281 82.0454V83.1818H410.827V80.8636H421.554C421.554 79.8788 421.357 79 420.963 78.2273C420.577 77.4545 420.024 76.8447 419.304 76.3977C418.592 75.9507 417.751 75.7273 416.781 75.7273C415.713 75.7273 414.789 75.9924 414.009 76.5227C413.236 77.0454 412.641 77.7273 412.224 78.5682C411.808 79.4091 411.599 80.3106 411.599 81.2727V82.8182C411.599 84.1363 411.827 85.2538 412.281 86.1704C412.743 87.0795 413.384 87.7727 414.202 88.25C415.02 88.7197 415.971 88.9545 417.054 88.9545C417.759 88.9545 418.395 88.856 418.963 88.6591C419.539 88.4545 420.035 88.1515 420.452 87.75C420.868 87.3409 421.19 86.8333 421.418 86.2273L424.009 86.9545C423.736 87.8333 423.277 88.606 422.634 89.2727C421.99 89.9318 421.194 90.447 420.247 90.8182C419.3 91.1818 418.236 91.3636 417.054 91.3636ZM428.361 91V73.5454H430.952V76.1818H431.134C431.452 75.3182 432.027 74.6174 432.861 74.0795C433.694 73.5417 434.634 73.2727 435.679 73.2727C435.876 73.2727 436.122 73.2765 436.418 73.2841C436.713 73.2917 436.937 73.303 437.088 73.3182V76.0454C436.997 76.0227 436.789 75.9886 436.463 75.9432C436.145 75.8901 435.808 75.8636 435.452 75.8636C434.603 75.8636 433.846 76.0417 433.179 76.3977C432.52 76.7462 431.997 77.231 431.611 77.8523C431.232 78.4659 431.043 79.1667 431.043 79.9545V91H428.361ZM450.585 91H447.631L456.176 67.7273H459.085L467.631 91H464.676L457.722 71.4091H457.54L450.585 91ZM451.676 81.9091H463.585V84.4091H451.676V81.9091ZM477.483 91.3636C476.028 91.3636 474.744 90.9962 473.631 90.2613C472.517 89.5189 471.646 88.4735 471.017 87.125C470.388 85.7689 470.074 84.1667 470.074 82.3182C470.074 80.4848 470.388 78.8939 471.017 77.5454C471.646 76.197 472.521 75.1553 473.642 74.4204C474.763 73.6856 476.059 73.3182 477.528 73.3182C478.665 73.3182 479.563 73.5076 480.222 73.8863C480.888 74.2576 481.396 74.6818 481.744 75.1591C482.1 75.6288 482.377 76.0151 482.574 76.3182H482.801V67.7273H485.483V91H482.892V88.3182H482.574C482.377 88.6363 482.097 89.0379 481.733 89.5227C481.369 90 480.85 90.428 480.176 90.8068C479.502 91.178 478.604 91.3636 477.483 91.3636ZM477.847 88.9545C478.922 88.9545 479.831 88.6742 480.574 88.1136C481.316 87.5454 481.881 86.7613 482.267 85.7613C482.653 84.7538 482.847 83.5909 482.847 82.2727C482.847 80.9697 482.657 79.8295 482.278 78.8523C481.9 77.8674 481.339 77.1023 480.597 76.5568C479.854 76.0038 478.938 75.7273 477.847 75.7273C476.71 75.7273 475.763 76.0189 475.006 76.6023C474.256 77.178 473.691 77.9621 473.312 78.9545C472.941 79.9394 472.756 81.0454 472.756 82.2727C472.756 83.5151 472.945 84.6439 473.324 85.6591C473.71 86.6667 474.278 87.4697 475.028 88.0682C475.786 88.6591 476.725 88.9545 477.847 88.9545Z" fill="#B4B4B4"/>
</svg>
