<svg width="288" height="288" viewBox="0 0 288 288" fill="none" xmlns="http://www.w3.org/2000/svg">
<rect x="0.5" y="0.5" width="287" height="287" rx="9.5" fill="#F4F4F4" stroke="#C9C9C9"/>
<path d="M67.8182 156V132.727H75.9545C77.5758 132.727 78.9129 133.008 79.9659 133.568C81.0189 134.121 81.803 134.867 82.3182 135.807C82.8333 136.739 83.0909 137.773 83.0909 138.909C83.0909 139.909 82.9129 140.735 82.5568 141.386C82.2083 142.038 81.7462 142.553 81.1705 142.932C80.6023 143.311 79.9848 143.591 79.3182 143.773V144C80.0303 144.045 80.7462 144.295 81.4659 144.75C82.1856 145.205 82.7879 145.856 83.2727 146.705C83.7576 147.553 84 148.591 84 149.818C84 150.985 83.7348 152.034 83.2045 152.966C82.6742 153.898 81.8371 154.636 80.6932 155.182C79.5492 155.727 78.0606 156 76.2273 156H67.8182ZM70.6364 153.5H76.2273C78.0682 153.5 79.375 153.144 80.1477 152.432C80.928 151.712 81.3182 150.841 81.3182 149.818C81.3182 149.03 81.1174 148.303 80.7159 147.636C80.3144 146.962 79.7424 146.424 79 146.023C78.2576 145.614 77.3788 145.409 76.3636 145.409H70.6364V153.5ZM70.6364 142.955H75.8636C76.7121 142.955 77.4773 142.788 78.1591 142.455C78.8485 142.121 79.3939 141.652 79.7955 141.045C80.2045 140.439 80.4091 139.727 80.4091 138.909C80.4091 137.886 80.053 137.019 79.3409 136.307C78.6288 135.587 77.5 135.227 75.9545 135.227H70.6364V142.955ZM93.4034 156.409C92.2973 156.409 91.2936 156.201 90.392 155.784C89.4905 155.36 88.7746 154.75 88.2443 153.955C87.714 153.152 87.4489 152.182 87.4489 151.045C87.4489 150.045 87.6458 149.235 88.0398 148.614C88.4337 147.985 88.9602 147.492 89.6193 147.136C90.2784 146.78 91.0057 146.515 91.8011 146.341C92.6042 146.159 93.411 146.015 94.2216 145.909C95.2822 145.773 96.142 145.67 96.8011 145.602C97.4678 145.527 97.9527 145.402 98.2557 145.227C98.5663 145.053 98.7216 144.75 98.7216 144.318V144.227C98.7216 143.106 98.4148 142.235 97.8011 141.614C97.1951 140.992 96.2746 140.682 95.0398 140.682C93.7595 140.682 92.7557 140.962 92.0284 141.523C91.3011 142.083 90.7898 142.682 90.4943 143.318L87.9489 142.409C88.4034 141.348 89.0095 140.523 89.767 139.932C90.5322 139.333 91.3655 138.917 92.267 138.682C93.1761 138.439 94.0701 138.318 94.9489 138.318C95.5095 138.318 96.1534 138.386 96.8807 138.523C97.6155 138.652 98.3239 138.92 99.0057 139.33C99.6951 139.739 100.267 140.356 100.722 141.182C101.176 142.008 101.403 143.114 101.403 144.5V156H98.7216V153.636H98.5852C98.4034 154.015 98.1004 154.42 97.6761 154.852C97.2519 155.284 96.6875 155.652 95.983 155.955C95.2784 156.258 94.4186 156.409 93.4034 156.409ZM93.8125 154C94.8731 154 95.767 153.792 96.4943 153.375C97.2292 152.958 97.7822 152.42 98.1534 151.761C98.5322 151.102 98.7216 150.409 98.7216 149.682V147.227C98.608 147.364 98.358 147.489 97.9716 147.602C97.5928 147.708 97.1534 147.803 96.6534 147.886C96.161 147.962 95.6799 148.03 95.2102 148.091C94.7481 148.144 94.3731 148.189 94.0852 148.227C93.3883 148.318 92.7367 148.466 92.1307 148.67C91.5322 148.867 91.0473 149.167 90.6761 149.568C90.3125 149.962 90.1307 150.5 90.1307 151.182C90.1307 152.114 90.4754 152.818 91.1648 153.295C91.8617 153.765 92.7443 154 93.8125 154ZM108.98 145.5V156H106.298V138.545H108.889V141.273H109.116C109.526 140.386 110.147 139.674 110.98 139.136C111.813 138.591 112.889 138.318 114.207 138.318C115.389 138.318 116.423 138.561 117.31 139.045C118.196 139.523 118.885 140.25 119.378 141.227C119.87 142.197 120.116 143.424 120.116 144.909V156H117.435V145.091C117.435 143.72 117.079 142.652 116.366 141.886C115.654 141.114 114.677 140.727 113.435 140.727C112.579 140.727 111.813 140.913 111.139 141.284C110.473 141.655 109.946 142.197 109.56 142.909C109.173 143.621 108.98 144.485 108.98 145.5ZM127.699 145.5V156H125.017V138.545H127.608V141.273H127.835C128.244 140.386 128.866 139.674 129.699 139.136C130.532 138.591 131.608 138.318 132.926 138.318C134.108 138.318 135.142 138.561 136.028 139.045C136.915 139.523 137.604 140.25 138.097 141.227C138.589 142.197 138.835 143.424 138.835 144.909V156H136.153V145.091C136.153 143.72 135.797 142.652 135.085 141.886C134.373 141.114 133.396 140.727 132.153 140.727C131.297 140.727 130.532 140.913 129.858 141.284C129.191 141.655 128.665 142.197 128.278 142.909C127.892 143.621 127.699 144.485 127.699 145.5ZM151.054 156.364C149.372 156.364 147.921 155.992 146.702 155.25C145.49 154.5 144.554 153.455 143.895 152.114C143.243 150.765 142.918 149.197 142.918 147.409C142.918 145.621 143.243 144.045 143.895 142.682C144.554 141.311 145.471 140.242 146.645 139.477C147.827 138.705 149.205 138.318 150.781 138.318C151.69 138.318 152.588 138.47 153.474 138.773C154.361 139.076 155.168 139.568 155.895 140.25C156.622 140.924 157.202 141.818 157.634 142.932C158.065 144.045 158.281 145.417 158.281 147.045V148.182H144.827V145.864H155.554C155.554 144.879 155.357 144 154.963 143.227C154.577 142.455 154.024 141.845 153.304 141.398C152.592 140.951 151.751 140.727 150.781 140.727C149.713 140.727 148.789 140.992 148.009 141.523C147.236 142.045 146.641 142.727 146.224 143.568C145.808 144.409 145.599 145.311 145.599 146.273V147.818C145.599 149.136 145.827 150.254 146.281 151.17C146.743 152.08 147.384 152.773 148.202 153.25C149.02 153.72 149.971 153.955 151.054 153.955C151.759 153.955 152.395 153.856 152.963 153.659C153.539 153.455 154.035 153.152 154.452 152.75C154.868 152.341 155.19 151.833 155.418 151.227L158.009 151.955C157.736 152.833 157.277 153.606 156.634 154.273C155.99 154.932 155.194 155.447 154.247 155.818C153.3 156.182 152.236 156.364 151.054 156.364ZM162.361 156V138.545H164.952V141.182H165.134C165.452 140.318 166.027 139.617 166.861 139.08C167.694 138.542 168.634 138.273 169.679 138.273C169.876 138.273 170.122 138.277 170.418 138.284C170.713 138.292 170.937 138.303 171.088 138.318V141.045C170.997 141.023 170.789 140.989 170.463 140.943C170.145 140.89 169.808 140.864 169.452 140.864C168.603 140.864 167.846 141.042 167.179 141.398C166.52 141.746 165.997 142.231 165.611 142.852C165.232 143.466 165.043 144.167 165.043 144.955V156L162.361 156ZM184.585 156H181.631L190.176 132.727H193.085L201.631 156H198.676L191.722 136.409H191.54L184.585 156ZM185.676 146.909H197.585V149.409H185.676V146.909ZM211.483 156.364C210.028 156.364 208.744 155.996 207.631 155.261C206.517 154.519 205.646 153.473 205.017 152.125C204.388 150.769 204.074 149.167 204.074 147.318C204.074 145.485 204.388 143.894 205.017 142.545C205.646 141.197 206.521 140.155 207.642 139.42C208.763 138.686 210.059 138.318 211.528 138.318C212.665 138.318 213.563 138.508 214.222 138.886C214.888 139.258 215.396 139.682 215.744 140.159C216.1 140.629 216.377 141.015 216.574 141.318H216.801V132.727H219.483V156H216.892V153.318H216.574C216.377 153.636 216.097 154.038 215.733 154.523C215.369 155 214.85 155.428 214.176 155.807C213.502 156.178 212.604 156.364 211.483 156.364ZM211.847 153.955C212.922 153.955 213.831 153.674 214.574 153.114C215.316 152.545 215.881 151.761 216.267 150.761C216.653 149.754 216.847 148.591 216.847 147.273C216.847 145.97 216.657 144.83 216.278 143.852C215.9 142.867 215.339 142.102 214.597 141.557C213.854 141.004 212.938 140.727 211.847 140.727C210.71 140.727 209.763 141.019 209.006 141.602C208.256 142.178 207.691 142.962 207.312 143.955C206.941 144.939 206.756 146.045 206.756 147.273C206.756 148.515 206.945 149.644 207.324 150.659C207.71 151.667 208.278 152.47 209.028 153.068C209.786 153.659 210.725 153.955 211.847 153.955Z" fill="#B4B4B4"/>
</svg>
